<svg width="447" height="291" viewBox="0 0 447 291" fill="none" xmlns="http://www.w3.org/2000/svg">
<path d="M81.0343 231.776H71.1246L63.797 266.18H50.5143L57.8419 231.776H48.0486L49.1651 227.1H82.0811L81.0343 231.776Z" fill="#FF0A0A"/>
<path d="M116.046 236.405C116.046 238.824 115.36 241.057 113.999 243.104C112.65 245.151 110.417 246.71 107.3 247.78L114.441 266.18H100.717L95.2965 249.129H94.6219L90.993 266.18H77.7103L86.0149 227.1H102.205C104.078 227.1 105.858 227.216 107.532 227.449C109.219 227.681 110.696 228.141 111.952 228.821C113.208 229.49 114.197 230.426 114.93 231.636C115.674 232.846 116.046 234.439 116.046 236.405ZM98.3206 245.198C99.3906 245.198 100.304 244.843 101.066 244.128C101.822 243.401 102.438 242.523 102.903 241.499C103.38 240.476 103.723 239.382 103.927 238.219C104.124 237.044 104.229 236.027 104.229 235.172C104.229 234.102 104.043 233.189 103.671 232.427C103.299 231.671 102.496 231.287 101.275 231.287H98.5067L95.4361 245.198H98.3206Z" fill="#FF0A0A"/>
<path d="M150.74 266.18H136.341L135.481 256.387H124.105L119.732 266.18H113.777L131.921 227.1H146.507L150.74 266.18ZM126.129 251.897H135.062L133.643 235.172L126.129 251.897Z" fill="#FF0A0A"/>
<path d="M186.505 266.18H172.105L165.266 237.94L159.241 266.18H153.705L162.009 227.1H176.711L183.178 255.712L189.273 227.1H194.925L186.505 266.18Z" fill="#FF0A0A"/>
<path d="M193.147 260.574L213.385 231.776H197.892L198.799 227.1H229.203L228.645 232.334L208.593 261.505H224.783L223.923 266.18H192.03L193.147 260.574Z" fill="#FF0A0A"/>
<path d="M230.432 250.432H249.809L248.599 256.038H229.152L230.432 250.432Z" fill="#FF0A0A"/>
<path d="M277.14 238.428C277.262 237.812 277.326 236.974 277.326 235.916C277.326 235.3 277.28 234.695 277.186 234.102C277.105 233.497 276.965 232.962 276.768 232.497C276.564 232.02 276.256 231.647 275.837 231.38C275.43 231.118 274.907 230.984 274.255 230.984C273.511 230.984 272.825 231.147 272.208 231.473C271.604 231.799 271.057 232.229 270.58 232.752C270.115 233.264 269.748 233.863 269.487 234.544C269.219 235.212 269.091 235.91 269.091 236.637C269.091 237.707 269.359 238.533 269.905 239.103C270.464 239.679 271.191 240.15 272.092 240.522C272.988 240.894 274.011 241.208 275.163 241.452C276.326 241.703 277.518 241.987 278.745 242.313C279.769 242.592 280.792 242.959 281.816 243.406C282.839 243.86 283.746 244.465 284.537 245.221C285.34 245.983 285.991 246.966 286.491 248.175C286.986 249.385 287.236 250.897 287.236 252.711C287.236 255.288 286.724 257.457 285.7 259.225C284.677 260.993 283.258 262.435 281.443 263.551C279.641 264.656 277.501 265.453 275.023 265.947C272.54 266.424 269.841 266.669 266.928 266.669C263.979 266.669 261.566 266.471 259.693 266.087C257.832 265.703 256.367 265.285 255.297 264.831C254.023 264.29 253.075 263.668 252.459 262.97L254.552 254.549H265.393C265.346 254.921 265.3 255.427 265.253 256.061C265.218 256.701 265.206 257.201 265.206 257.573C265.206 258.056 265.265 258.568 265.393 259.108C265.515 259.638 265.707 260.126 265.974 260.574C266.236 261.028 266.614 261.4 267.114 261.69C267.608 261.97 268.219 262.109 268.952 262.109C269.772 262.109 270.499 261.935 271.138 261.574C271.772 261.202 272.307 260.737 272.743 260.178C273.174 259.62 273.499 259.01 273.72 258.341C273.953 257.66 274.069 256.992 274.069 256.34C274.069 255.445 273.848 254.683 273.418 254.061C272.982 253.444 272.394 252.921 271.65 252.502C270.917 252.072 270.074 251.699 269.115 251.385C268.149 251.077 267.16 250.757 266.137 250.432C265.143 250.141 264.102 249.792 263.02 249.385C261.932 248.966 260.938 248.396 260.042 247.663C259.141 246.919 258.391 245.989 257.786 244.872C257.193 243.744 256.902 242.29 256.902 240.522C256.902 237.905 257.565 235.701 258.902 233.915C260.234 232.136 261.915 230.694 263.95 229.589C265.98 228.472 268.207 227.681 270.627 227.216C273.046 226.739 275.337 226.495 277.512 226.495C280.379 226.495 282.845 226.838 284.91 227.518C286.986 228.187 288.562 228.972 289.632 229.868L287.352 238.428H277.14Z" fill="white"/>
<path d="M312.958 251.409L309.818 266.18H296.465L299.861 250.362L293.813 227.1H308.585L312.772 242.546L322.007 227.1H328.637L312.958 251.409Z" fill="white"/>
<path d="M356.895 266.18H342.496L335.657 237.94L329.632 266.18H324.096L332.4 227.1H347.102L353.569 255.712L359.663 227.1H365.316L356.895 266.18Z" fill="white"/>
<path d="M398.431 262.854C397.407 263.354 396.343 263.842 395.244 264.319C394.156 264.784 392.999 265.197 391.778 265.552C390.551 265.895 389.207 266.168 387.753 266.366C386.294 266.564 384.706 266.669 382.985 266.669C377.477 266.669 373.238 265.447 370.26 262.993C367.294 260.527 365.817 256.422 365.817 250.664C365.817 247.349 366.329 244.221 367.353 241.29C368.376 238.359 369.888 235.8 371.889 233.613C373.901 231.415 376.384 229.676 379.333 228.402C382.293 227.135 385.683 226.495 389.498 226.495C391.313 226.495 392.964 226.623 394.453 226.867C395.953 227.117 397.314 227.437 398.524 227.821C399.733 228.21 400.815 228.629 401.781 229.077C402.74 229.531 403.607 229.961 404.386 230.38L402.176 241.825H391.103C391.15 241.406 391.202 240.871 391.266 240.22C391.324 239.557 391.371 238.888 391.406 238.219C391.452 237.539 391.487 236.87 391.522 236.218C391.568 235.567 391.592 235.009 391.592 234.544C391.592 234.218 391.568 233.846 391.522 233.427C391.487 232.997 391.388 232.578 391.219 232.171C391.062 231.752 390.807 231.415 390.452 231.147C390.109 230.868 389.649 230.729 389.079 230.729C388.009 230.729 387.032 231.171 386.148 232.055C385.264 232.938 384.473 234.113 383.776 235.567C383.078 237.027 382.461 238.678 381.938 240.522C381.409 242.371 380.967 244.244 380.612 246.151C380.269 248.059 380.007 249.937 379.821 251.781C379.635 253.63 379.542 255.247 379.542 256.643C379.542 257.05 379.554 257.561 379.588 258.178C379.635 258.8 379.757 259.399 379.961 259.969C380.176 260.545 380.496 261.039 380.914 261.458C381.345 261.865 381.938 262.063 382.682 262.063C383.95 262.063 385.177 261.272 386.358 259.69C387.55 258.108 388.597 255.288 389.498 251.223H400.897L398.431 262.854Z" fill="white"/>
<mask id="mask0_28_1517" style="mask-type:luminance" maskUnits="userSpaceOnUse" x="19" y="158" width="34" height="17">
<path d="M19.2552 158.299H52.648V174.995H19.2552V158.299Z" fill="white"/>
</mask>
<g mask="url(#mask0_28_1517)">
<mask id="mask1_28_1517" style="mask-type:luminance" maskUnits="userSpaceOnUse" x="19" y="158" width="34" height="17">
<path d="M44.3027 158.299C48.9145 158.299 52.648 162.038 52.648 166.65C52.648 171.262 48.9145 174.995 44.3027 174.995H27.6005C22.9946 174.995 19.2552 171.262 19.2552 166.65C19.2552 162.038 22.9946 158.299 27.6005 158.299H44.3027Z" fill="white"/>
</mask>
<g mask="url(#mask1_28_1517)">
<path d="M19.2552 158.299H52.648V174.995H19.2552V158.299Z" fill="white"/>
</g>
</g>
<mask id="mask2_28_1517" style="mask-type:luminance" maskUnits="userSpaceOnUse" x="0" y="114" width="34" height="18">
<path d="M0 114.875H33.3986V131.577H0V114.875Z" fill="white"/>
</mask>
<g mask="url(#mask2_28_1517)">
<mask id="mask3_28_1517" style="mask-type:luminance" maskUnits="userSpaceOnUse" x="0" y="114" width="34" height="18">
<path d="M25.0475 114.875C29.6592 114.875 33.3986 118.614 33.3986 123.226C33.3986 127.837 29.6592 131.577 25.0475 131.577H8.35111C3.73939 131.577 0 127.837 0 123.226C0 118.614 3.73939 114.875 8.35111 114.875H25.0475Z" fill="white"/>
</mask>
<g mask="url(#mask3_28_1517)">
<path d="M0 114.875H33.3986V131.577H0V114.875Z" fill="#FF0A0A"/>
</g>
</g>
<mask id="mask4_28_1517" style="mask-type:luminance" maskUnits="userSpaceOnUse" x="123" y="0" width="33" height="17">
<path d="M123.336 0.279297H155.24V16.2313H123.336V0.279297Z" fill="white"/>
</mask>
<g mask="url(#mask4_28_1517)">
<mask id="mask5_28_1517" style="mask-type:luminance" maskUnits="userSpaceOnUse" x="123" y="0" width="33" height="17">
<path d="M147.261 0.279297C151.669 0.279297 155.24 3.85004 155.24 8.25821C155.24 12.6606 151.669 16.2313 147.261 16.2313H131.309C126.907 16.2313 123.336 12.6606 123.336 8.25821C123.336 3.85004 126.907 0.279297 131.309 0.279297H147.261Z" fill="white"/>
</mask>
<g mask="url(#mask5_28_1517)">
<path d="M123.336 0.279297H155.24V16.2313H123.336V0.279297Z" fill="white"/>
</g>
</g>
<mask id="mask6_28_1517" style="mask-type:luminance" maskUnits="userSpaceOnUse" x="107" y="0" width="33" height="17">
<path d="M107.384 0.279297H139.288V16.2313H107.384V0.279297Z" fill="white"/>
</mask>
<g mask="url(#mask6_28_1517)">
<mask id="mask7_28_1517" style="mask-type:luminance" maskUnits="userSpaceOnUse" x="107" y="0" width="33" height="17">
<path d="M131.309 0.279297C135.717 0.279297 139.288 3.85004 139.288 8.25821C139.288 12.6606 135.717 16.2313 131.309 16.2313H115.357C110.955 16.2313 107.384 12.6606 107.384 8.25821C107.384 3.85004 110.955 0.279297 115.357 0.279297H131.309Z" fill="white"/>
</mask>
<g mask="url(#mask7_28_1517)">
<path d="M107.384 0.279297H139.288V16.2313H107.384V0.279297Z" fill="white"/>
</g>
</g>
<mask id="mask8_28_1517" style="mask-type:luminance" maskUnits="userSpaceOnUse" x="55" y="0" width="33" height="17">
<path d="M55.2708 0.279297H87.1748V16.2313H55.2708V0.279297Z" fill="white"/>
</mask>
<g mask="url(#mask8_28_1517)">
<mask id="mask9_28_1517" style="mask-type:luminance" maskUnits="userSpaceOnUse" x="55" y="0" width="33" height="17">
<path d="M79.2017 0.279297C83.6041 0.279297 87.1748 3.85004 87.1748 8.25821C87.1748 12.6606 83.6041 16.2313 79.2017 16.2313H63.2497C58.8416 16.2313 55.2708 12.6606 55.2708 8.25821C55.2708 3.85004 58.8416 0.279297 63.2497 0.279297H79.2017Z" fill="white"/>
</mask>
<g mask="url(#mask9_28_1517)">
<path d="M55.2708 0.279297H87.1748V16.2313H55.2708V0.279297Z" fill="#FF0A0A"/>
</g>
</g>
<mask id="mask10_28_1517" style="mask-type:luminance" maskUnits="userSpaceOnUse" x="60" y="27" width="257" height="151">
<path d="M60.2954 27.8101H316.162V177.868H60.2954V27.8101Z" fill="white"/>
</mask>
<g mask="url(#mask10_28_1517)">
<path d="M401.731 37.3592L374.125 167.168C373.014 172.419 367.827 176.699 362.575 176.699H235.558C233.849 176.699 232.668 175.379 232.889 173.687C234.634 160.358 225.497 149.896 212.075 149.896C198.699 149.896 185.126 160.323 181.171 173.635C180.677 175.344 178.915 176.699 177.165 176.699H161.457C156.188 176.699 152.815 172.419 153.926 167.168L156.083 157.02H69.1642C64.442 157.02 60.6095 153.181 60.6095 148.459C60.6095 143.737 64.442 139.905 69.1642 139.905H181.805C186.528 139.905 190.36 136.072 190.36 131.35C190.36 126.622 186.528 122.789 181.805 122.789H118.91C114.188 122.789 110.356 118.957 110.356 114.235C110.356 109.513 114.188 105.68 118.91 105.68H189.081C193.803 105.68 197.635 101.842 197.635 97.1196C197.635 92.3974 193.803 88.565 189.081 88.565H89.7686C85.0464 88.565 81.214 84.7325 81.214 80.0045C81.214 75.2823 85.0464 71.4498 89.7686 71.4498H196.35C201.072 71.4498 204.91 67.6174 204.91 62.8952C204.91 58.173 201.072 54.3347 196.35 54.3347H118.91C114.188 54.3347 110.356 50.5023 110.356 45.7801C110.356 41.0578 114.188 37.2254 118.91 37.2254H181.567C182.73 32.0205 187.9 27.8101 193.099 27.8101H394.2C399.475 27.8101 402.842 32.0903 401.731 37.3592Z" fill="#FF0A0A"/>
</g>
<mask id="mask11_28_1517" style="mask-type:luminance" maskUnits="userSpaceOnUse" x="182" y="154" width="48" height="46">
<path d="M182.526 154.74H229.161V199.764H182.526V154.74Z" fill="white"/>
</mask>
<g mask="url(#mask11_28_1517)">
<path d="M203.451 188.953C197.17 188.953 193.14 183.841 194.477 177.555C195.815 171.268 202.008 166.156 208.295 166.156C214.582 166.156 218.606 171.268 217.268 177.555C215.937 183.841 209.737 188.953 203.451 188.953ZM210.708 154.804C198.164 154.804 185.789 165.011 183.12 177.555C180.456 190.099 188.493 200.305 201.037 200.305C213.581 200.305 225.963 190.099 228.626 177.555C231.295 165.011 223.258 154.804 210.708 154.804Z" fill="#FF0A0A"/>
</g>
<path d="M97.4859 45.78C97.4859 50.5022 93.6534 54.3347 88.9312 54.3347H73.1362C68.414 54.3347 64.5757 50.5022 64.5757 45.78C64.5757 41.0578 68.414 37.2253 73.1362 37.2253H88.9312C93.6534 37.2253 97.4859 41.0578 97.4859 45.78Z" fill="#FF0A0A"/>
<mask id="mask12_28_1517" style="mask-type:luminance" maskUnits="userSpaceOnUse" x="52" y="104" width="36" height="21">
<path d="M52.6481 104.918H87.0935V124.273H52.6481V104.918Z" fill="white"/>
</mask>
<g mask="url(#mask12_28_1517)">
<path d="M85.628 114.235C85.628 118.957 81.7955 122.789 77.0733 122.789H61.2551C56.5328 122.789 52.7004 118.957 52.7004 114.235C52.7004 109.513 56.5328 105.68 61.2551 105.68H77.0733C81.7955 105.68 85.628 109.513 85.628 114.235Z" fill="#FF0A0A"/>
</g>
<mask id="mask13_28_1517" style="mask-type:luminance" maskUnits="userSpaceOnUse" x="313" y="27" width="52" height="151">
<path d="M313.649 27.8101H364.006V177.868H313.649V27.8101Z" fill="white"/>
</mask>
<g mask="url(#mask13_28_1517)">
<path d="M363.419 37.3592L335.818 167.168C334.702 172.419 329.52 176.699 324.263 176.699H197.246C195.536 176.699 194.355 175.379 194.576 173.687C196.321 160.358 187.185 149.896 173.768 149.896C160.387 149.896 146.813 160.323 142.859 173.635C142.364 175.344 140.602 176.699 138.858 176.699H123.144C117.875 176.699 114.502 172.419 115.619 167.168L117.77 157.02H30.8514C26.1292 157.02 22.2967 153.181 22.2967 148.459C22.2967 143.737 26.1292 139.905 30.8514 139.905H143.493C148.215 139.905 152.053 136.072 152.053 131.35C152.053 126.622 148.215 122.789 143.493 122.789H80.6033C75.8811 122.789 72.0428 118.957 72.0428 114.235C72.0428 109.513 75.8811 105.68 80.6033 105.68H150.768C155.49 105.68 159.322 101.842 159.322 97.1196C159.322 92.3974 155.49 88.565 150.768 88.565H51.4558C46.7336 88.565 42.9012 84.7325 42.9012 80.0045C42.9012 75.2823 46.7336 71.4498 51.4558 71.4498H158.043C162.765 71.4498 166.598 67.6174 166.598 62.8952C166.598 58.173 162.765 54.3347 158.043 54.3347H80.6033C75.8811 54.3347 72.0428 50.5023 72.0428 45.7801C72.0428 41.0578 75.8811 37.2254 80.6033 37.2254H143.254C144.417 32.0205 149.587 27.8101 154.792 27.8101H355.888C361.162 27.8101 364.529 32.0903 363.419 37.3592Z" fill="#FF0A0A"/>
</g>
<mask id="mask14_28_1517" style="mask-type:luminance" maskUnits="userSpaceOnUse" x="339" y="59" width="108" height="115">
<path d="M339.348 59.1677H446.459V173.914H339.348V59.1677Z" fill="white"/>
</mask>
<g mask="url(#mask14_28_1517)">
<path d="M442.563 109.524L438.434 105.57C437.701 104.884 437.055 104.069 436.497 103.151L412.235 63.2909C410.647 60.6914 407.797 59.1968 404.413 59.1968H366.745C364.547 59.1968 362.378 60.988 361.913 63.1862L339.529 168.5C338.901 171.454 340.791 173.856 343.745 173.856H362.977L363.221 173.094C367.426 159.87 380.645 149.896 393.962 149.896C407.286 149.896 416.265 159.87 414.846 173.094L414.764 173.856H424.127C430.327 173.856 436.439 168.814 437.759 162.614L446.197 122.929C447.308 117.678 445.988 112.793 442.563 109.524Z" fill="#FF0A0A"/>
</g>
<mask id="mask15_28_1517" style="mask-type:luminance" maskUnits="userSpaceOnUse" x="364" y="154" width="48" height="46">
<path d="M364.413 154.74H411.048V199.764H364.413V154.74Z" fill="white"/>
</mask>
<g mask="url(#mask15_28_1517)">
<path d="M385.337 188.953C379.051 188.953 375.026 183.836 376.358 177.555C377.696 171.268 383.895 166.156 390.176 166.156C396.463 166.156 400.493 171.268 399.155 177.555C397.818 183.836 391.618 188.953 385.337 188.953ZM392.595 154.804C380.045 154.804 367.676 165.011 365.006 177.555C362.337 190.099 370.374 200.305 382.924 200.305C395.468 200.305 407.844 190.099 410.507 177.555C413.176 165.011 405.139 154.804 392.595 154.804Z" fill="#FF0A0A"/>
</g>
<path d="M399.405 69.4612H377.452C373.805 69.4612 370.217 72.4155 369.438 76.0676L363.395 104.494C362.622 108.146 364.954 111.1 368.6 111.1H409.233C414.491 111.1 418.881 105.262 416.927 100.865L404.29 72.4387C403.464 70.5778 401.627 69.4612 399.405 69.4612Z" fill="#231F20"/>
<mask id="mask16_28_1517" style="mask-type:luminance" maskUnits="userSpaceOnUse" x="219" y="55" width="117" height="96">
<path d="M219.595 55.1433H335.719V150.053H219.595V55.1433Z" fill="white"/>
</mask>
<g mask="url(#mask16_28_1517)">
<path d="M291.608 56.9461L277.901 70.4963L264.566 56.9461C263.101 55.4806 260.891 55.0793 259.012 55.9342L223.788 71.9328C220.717 73.3285 219.909 77.3121 222.194 79.7954L233.325 92.0312V123.557C233.325 127.285 235.425 130.705 238.751 132.391L272.946 149.739V104.744L243.235 90.874L275.877 75.9397C277.139 75.2941 278.651 75.2941 279.919 75.9397L312.568 90.8681L282.856 104.744V149.739L317.051 132.379C320.378 130.693 322.477 127.279 322.477 123.551V92.0312L333.975 79.7954C336.26 77.3121 335.452 73.3285 332.381 71.9328L297.156 55.9342C295.278 55.0793 293.068 55.4806 291.608 56.9461Z" fill="#231F20"/>
</g>
<mask id="mask17_28_1517" style="mask-type:luminance" maskUnits="userSpaceOnUse" x="61" y="36" width="41" height="20">
<path d="M61.2376 36.4524H101.685V55.4517H61.2376V36.4524Z" fill="white"/>
</mask>
<g mask="url(#mask17_28_1517)">
<mask id="mask18_28_1517" style="mask-type:luminance" maskUnits="userSpaceOnUse" x="61" y="36" width="41" height="20">
<path d="M92.6647 36.4524C97.6254 36.4524 101.644 40.7036 101.644 45.9492C101.644 51.2006 97.6254 55.4517 92.6647 55.4517H70.2168C65.2561 55.4517 61.2376 51.2006 61.2376 45.9492C61.2376 40.7036 65.2561 36.4524 70.2168 36.4524H92.6647Z" fill="white"/>
</mask>
<g mask="url(#mask18_28_1517)">
<path d="M61.2376 36.4524H101.609V55.4517H61.2376V36.4524Z" fill="white"/>
</g>
</g>
<path d="M110.776 274.284L105.472 285.892H102.727L102.006 277.634L98.284 285.892L95.5623 285.915L94.469 274.284H96.958L97.4233 283.287L101.378 274.284H103.96L104.611 283.24L108.263 274.284H110.776Z" fill="white"/>
<path d="M117.078 276.54C117.973 276.54 118.694 276.808 119.241 277.331C119.782 277.843 120.055 278.576 120.055 279.518C120.055 279.878 120.02 280.204 119.962 280.495L119.008 285.892H116.682L117.589 280.797C117.618 280.599 117.636 280.402 117.636 280.216C117.636 279.657 117.485 279.239 117.194 278.959C116.897 278.669 116.479 278.518 115.938 278.518C115.316 278.518 114.786 278.704 114.356 279.076C113.92 279.448 113.635 279.977 113.495 280.658L112.565 285.892H110.215L112.402 273.586H114.751L113.984 277.82C114.368 277.418 114.827 277.11 115.356 276.889C115.897 276.657 116.473 276.54 117.078 276.54Z" fill="white"/>
<path d="M126.905 276.517C128.068 276.517 128.987 276.843 129.673 277.494C130.371 278.145 130.72 279.024 130.72 280.123C130.72 280.483 130.697 280.797 130.65 281.076C130.569 281.402 130.493 281.693 130.417 281.937H123.695C123.677 282.019 123.671 282.123 123.671 282.263C123.671 282.839 123.84 283.286 124.183 283.612C124.52 283.938 124.962 284.101 125.509 284.101C125.974 284.101 126.376 284.002 126.719 283.798C127.056 283.6 127.335 283.333 127.556 283.007H130.068C129.65 283.891 129.004 284.624 128.138 285.194C127.283 285.752 126.312 286.031 125.23 286.031C124.049 286.031 123.101 285.706 122.392 285.054C121.694 284.391 121.345 283.484 121.345 282.333C121.345 282.007 121.374 281.658 121.438 281.286C121.607 280.326 121.95 279.489 122.462 278.774C122.974 278.064 123.607 277.512 124.369 277.122C125.143 276.721 125.986 276.517 126.905 276.517ZM128.324 280.518C128.353 280.35 128.37 280.227 128.37 280.146C128.37 279.605 128.19 279.186 127.835 278.89C127.492 278.599 127.05 278.448 126.509 278.448C125.916 278.448 125.393 278.634 124.928 279.006C124.462 279.378 124.125 279.884 123.927 280.518H128.324Z" fill="white"/>
<path d="M135.163 278.308C135.564 277.75 136.029 277.32 136.559 277.006C137.082 276.697 137.658 276.54 138.28 276.54L137.861 278.983H137.233C136.547 278.983 136 279.14 135.582 279.448C135.163 279.745 134.86 280.251 134.674 280.96L133.814 285.892H131.464L133.093 276.68H135.442L135.163 278.308Z" fill="white"/>
<path d="M143.881 276.517C145.044 276.517 145.963 276.843 146.649 277.494C147.347 278.145 147.696 279.024 147.696 280.123C147.696 280.483 147.672 280.797 147.626 281.076C147.544 281.402 147.469 281.693 147.393 281.937H140.67C140.653 282.019 140.647 282.123 140.647 282.263C140.647 282.839 140.816 283.286 141.159 283.612C141.496 283.938 141.938 284.101 142.485 284.101C142.95 284.101 143.351 284.002 143.695 283.798C144.032 283.6 144.311 283.333 144.532 283.007H147.044C146.626 283.891 145.98 284.624 145.114 285.194C144.259 285.752 143.287 286.031 142.206 286.031C141.025 286.031 140.077 285.706 139.368 285.054C138.67 284.391 138.321 283.484 138.321 282.333C138.321 282.007 138.35 281.658 138.414 281.286C138.583 280.326 138.926 279.489 139.438 278.774C139.949 278.064 140.583 277.512 141.345 277.122C142.119 276.721 142.962 276.517 143.881 276.517ZM145.3 280.518C145.329 280.35 145.346 280.227 145.346 280.146C145.346 279.605 145.166 279.186 144.811 278.89C144.468 278.599 144.026 278.448 143.485 278.448C142.892 278.448 142.369 278.634 141.903 279.006C141.438 279.378 141.101 279.884 140.903 280.518H145.3Z" fill="white"/>
<path d="M155.571 284.101H159.386L159.06 285.892H152.896L154.966 274.284H157.292L155.571 284.101Z" fill="white"/>
<path d="M164.645 286.031C163.866 286.031 163.18 285.88 162.575 285.566C161.97 285.24 161.493 284.787 161.156 284.194C160.83 283.606 160.667 282.932 160.667 282.17C160.667 281.135 160.911 280.187 161.412 279.332C161.906 278.465 162.581 277.785 163.435 277.285C164.285 276.773 165.238 276.517 166.297 276.517C167.088 276.517 167.785 276.692 168.39 277.029C169.007 277.355 169.489 277.814 169.833 278.401C170.17 278.977 170.344 279.652 170.344 280.425C170.344 281.484 170.094 282.437 169.6 283.286C169.1 284.141 168.414 284.816 167.53 285.31C166.657 285.793 165.698 286.031 164.645 286.031ZM164.971 284.054C165.529 284.054 166.029 283.891 166.483 283.566C166.931 283.24 167.28 282.815 167.53 282.286C167.791 281.763 167.925 281.204 167.925 280.611C167.925 279.948 167.739 279.436 167.367 279.076C166.995 278.704 166.529 278.518 165.971 278.518C165.395 278.518 164.889 278.68 164.459 279.006C164.023 279.332 163.68 279.768 163.435 280.309C163.203 280.838 163.086 281.402 163.086 282.007C163.086 282.658 163.255 283.164 163.598 283.519C163.953 283.88 164.412 284.054 164.971 284.054Z" fill="white"/>
<path d="M176.416 276.517C177.096 276.517 177.678 276.657 178.161 276.936C178.638 277.203 178.981 277.552 179.184 277.983L179.417 276.68H181.766L180.138 285.962C179.981 286.811 179.673 287.572 179.207 288.241C178.742 288.904 178.126 289.433 177.37 289.823C176.625 290.224 175.765 290.428 174.788 290.428C173.485 290.428 172.467 290.125 171.74 289.521C171.008 288.916 170.688 288.084 170.763 287.032H173.066C173.113 287.45 173.311 287.782 173.671 288.032C174.026 288.276 174.497 288.404 175.09 288.404C175.77 288.404 176.352 288.201 176.835 287.799C177.312 287.392 177.631 286.782 177.788 285.962L178.044 284.519C177.672 284.955 177.195 285.322 176.625 285.613C176.05 285.892 175.422 286.031 174.741 286.031C174.072 286.031 173.473 285.886 172.95 285.589C172.421 285.281 172.008 284.845 171.717 284.287C171.42 283.728 171.275 283.077 171.275 282.333C171.275 281.995 171.304 281.635 171.368 281.263C171.537 280.32 171.868 279.489 172.368 278.774C172.863 278.064 173.462 277.512 174.16 277.122C174.869 276.721 175.625 276.517 176.416 276.517ZM178.603 281.286C178.649 280.995 178.672 280.786 178.672 280.658C178.672 280.006 178.475 279.495 178.091 279.122C177.719 278.75 177.242 278.564 176.672 278.564C176.236 278.564 175.811 278.675 175.392 278.89C174.985 279.111 174.636 279.419 174.346 279.82C174.049 280.227 173.846 280.704 173.741 281.263C173.706 281.466 173.694 281.658 173.694 281.844C173.694 282.513 173.88 283.042 174.253 283.426C174.636 283.798 175.119 283.984 175.695 283.984C176.125 283.984 176.544 283.885 176.951 283.682C177.37 283.467 177.724 283.158 178.021 282.751C178.312 282.333 178.51 281.844 178.603 281.286Z" fill="white"/>
<path d="M185.432 275.586C185.06 275.586 184.758 275.488 184.525 275.284C184.304 275.069 184.2 274.796 184.2 274.47C184.2 274.022 184.368 273.644 184.711 273.33C185.049 273.004 185.444 272.842 185.898 272.842C186.252 272.842 186.537 272.952 186.758 273.167C186.991 273.388 187.107 273.65 187.107 273.958C187.107 274.412 186.933 274.796 186.596 275.121C186.27 275.435 185.88 275.586 185.432 275.586ZM186.386 276.68L184.758 285.892H182.408L184.037 276.68H186.386Z" fill="white"/>
<path d="M190.636 286.031C189.967 286.031 189.357 285.921 188.798 285.706C188.252 285.473 187.821 285.159 187.496 284.752C187.182 284.351 187.031 283.885 187.031 283.356C187.031 283.281 187.042 283.158 187.077 282.984H189.333C189.299 283.374 189.415 283.693 189.682 283.938C189.944 284.17 190.316 284.287 190.799 284.287C191.247 284.287 191.619 284.211 191.916 284.054C192.206 283.885 192.358 283.647 192.358 283.333C192.358 283.054 192.218 282.839 191.939 282.682C191.671 282.513 191.247 282.321 190.659 282.1C190.066 281.885 189.578 281.681 189.194 281.495C188.804 281.297 188.473 281.018 188.194 280.658C187.914 280.303 187.775 279.855 187.775 279.309C187.775 278.768 187.926 278.285 188.24 277.866C188.566 277.436 189.008 277.099 189.566 276.866C190.136 276.633 190.787 276.517 191.52 276.517C192.218 276.517 192.829 276.633 193.358 276.866C193.899 277.099 194.317 277.424 194.614 277.843C194.905 278.262 195.056 278.739 195.056 279.262C195.056 279.402 195.044 279.506 195.033 279.564H192.869C192.898 279.181 192.782 278.867 192.52 278.634C192.27 278.401 191.904 278.285 191.427 278.285C191.02 278.285 190.688 278.372 190.427 278.541C190.177 278.715 190.055 278.948 190.055 279.239C190.055 279.535 190.194 279.774 190.473 279.96C190.764 280.134 191.218 280.326 191.823 280.541C192.427 280.792 192.904 281.018 193.265 281.216C193.62 281.402 193.928 281.67 194.195 282.007C194.457 282.333 194.591 282.751 194.591 283.263C194.591 283.821 194.416 284.322 194.079 284.752C193.736 285.171 193.265 285.49 192.66 285.706C192.067 285.921 191.392 286.031 190.636 286.031Z" fill="white"/>
<path d="M199.326 283.054C199.308 283.118 199.302 283.205 199.302 283.31C199.302 283.531 199.36 283.693 199.488 283.798C199.628 283.891 199.843 283.938 200.14 283.938H201.233L200.884 285.892H199.395C197.732 285.892 196.906 285.205 196.906 283.821C196.906 283.542 196.93 283.28 196.976 283.03L197.767 278.587H196.65L196.999 276.68H198.116L198.511 274.4H200.861L200.442 276.68H202.489L202.163 278.587H200.093L199.326 283.054Z" fill="white"/>
<path d="M205.567 275.586C205.195 275.586 204.893 275.488 204.66 275.284C204.439 275.069 204.334 274.796 204.334 274.47C204.334 274.022 204.503 273.644 204.846 273.33C205.183 273.004 205.579 272.842 206.033 272.842C206.387 272.842 206.672 272.952 206.893 273.167C207.126 273.388 207.242 273.65 207.242 273.958C207.242 274.412 207.068 274.796 206.73 275.121C206.405 275.435 206.015 275.586 205.567 275.586ZM206.521 276.68L204.893 285.892H202.543L204.172 276.68H206.521Z" fill="white"/>
<path d="M207.398 281.286C207.567 280.326 207.91 279.489 208.422 278.774C208.933 278.064 209.567 277.512 210.329 277.122C211.085 276.721 211.911 276.517 212.795 276.517C213.923 276.517 214.819 276.808 215.47 277.378C216.121 277.936 216.482 278.744 216.563 279.797H214.051C213.987 279.396 213.818 279.088 213.539 278.867C213.26 278.634 212.888 278.518 212.423 278.518C211.754 278.518 211.178 278.762 210.701 279.239C210.236 279.721 209.922 280.402 209.771 281.286C209.724 281.6 209.701 281.862 209.701 282.077C209.701 282.716 209.852 283.205 210.166 283.542C210.474 283.885 210.911 284.054 211.469 284.054C212.399 284.054 213.08 283.629 213.516 282.775H216.028C215.592 283.787 214.947 284.583 214.098 285.171C213.243 285.746 212.248 286.031 211.12 286.031C209.957 286.031 209.026 285.706 208.328 285.054C207.642 284.391 207.305 283.49 207.305 282.356C207.305 282.019 207.334 281.658 207.398 281.286Z" fill="white"/>
<path d="M220.78 286.031C220.112 286.031 219.501 285.921 218.943 285.706C218.396 285.473 217.966 285.159 217.64 284.752C217.326 284.351 217.175 283.885 217.175 283.356C217.175 283.281 217.186 283.158 217.221 282.984H219.478C219.443 283.374 219.559 283.693 219.827 283.938C220.088 284.17 220.46 284.287 220.943 284.287C221.391 284.287 221.763 284.211 222.06 284.054C222.351 283.885 222.502 283.647 222.502 283.333C222.502 283.054 222.362 282.839 222.083 282.682C221.815 282.513 221.391 282.321 220.804 282.1C220.21 281.885 219.722 281.681 219.338 281.495C218.948 281.297 218.617 281.018 218.338 280.658C218.059 280.303 217.919 279.855 217.919 279.309C217.919 278.768 218.07 278.285 218.384 277.866C218.71 277.436 219.152 277.099 219.71 276.866C220.28 276.633 220.932 276.517 221.664 276.517C222.362 276.517 222.973 276.633 223.502 276.866C224.043 277.099 224.462 277.424 224.758 277.843C225.049 278.262 225.2 278.739 225.2 279.262C225.2 279.402 225.188 279.506 225.177 279.564H223.013C223.043 279.181 222.926 278.867 222.665 278.634C222.414 278.401 222.048 278.285 221.571 278.285C221.164 278.285 220.833 278.372 220.571 278.541C220.321 278.715 220.199 278.948 220.199 279.239C220.199 279.535 220.338 279.774 220.617 279.96C220.908 280.134 221.362 280.326 221.967 280.541C222.572 280.792 223.048 281.018 223.409 281.216C223.764 281.402 224.072 281.67 224.339 282.007C224.601 282.333 224.735 282.751 224.735 283.263C224.735 283.821 224.56 284.322 224.223 284.752C223.88 285.171 223.409 285.49 222.804 285.706C222.211 285.921 221.536 286.031 220.78 286.031Z" fill="white"/>
<path d="M245.417 274.284L243.37 285.892H241.021L242.347 278.378L237.927 285.892H236.159L234.368 278.355L233.042 285.892H230.692L232.763 274.284H235.391L237.578 282.891L242.765 274.284H245.417Z" fill="white"/>
<path d="M251.339 276.517C252.502 276.517 253.421 276.843 254.107 277.494C254.805 278.145 255.154 279.024 255.154 280.123C255.154 280.483 255.131 280.797 255.084 281.076C255.003 281.402 254.927 281.693 254.851 281.937H248.129C248.111 282.019 248.105 282.123 248.105 282.263C248.105 282.839 248.274 283.286 248.617 283.612C248.954 283.938 249.396 284.101 249.943 284.101C250.408 284.101 250.81 284.002 251.153 283.798C251.49 283.6 251.769 283.333 251.99 283.007H254.502C254.084 283.891 253.438 284.624 252.572 285.194C251.717 285.752 250.746 286.031 249.664 286.031C248.483 286.031 247.535 285.706 246.826 285.054C246.128 284.391 245.779 283.484 245.779 282.333C245.779 282.007 245.808 281.658 245.872 281.286C246.041 280.326 246.384 279.489 246.896 278.774C247.408 278.064 248.041 277.512 248.803 277.122C249.577 276.721 250.42 276.517 251.339 276.517ZM252.758 280.518C252.787 280.35 252.804 280.227 252.804 280.146C252.804 279.605 252.624 279.186 252.269 278.89C251.926 278.599 251.484 278.448 250.943 278.448C250.35 278.448 249.827 278.634 249.362 279.006C248.896 279.378 248.559 279.884 248.361 280.518H252.758Z" fill="white"/>
<path d="M261.597 276.517C262.761 276.517 263.679 276.843 264.366 277.494C265.064 278.145 265.412 279.024 265.412 280.123C265.412 280.483 265.389 280.797 265.343 281.076C265.261 281.402 265.186 281.693 265.11 281.937H258.387C258.37 282.019 258.364 282.123 258.364 282.263C258.364 282.839 258.533 283.286 258.876 283.612C259.213 283.938 259.655 284.101 260.202 284.101C260.667 284.101 261.068 284.002 261.411 283.798C261.749 283.6 262.028 283.333 262.249 283.007H264.761C264.342 283.891 263.697 284.624 262.83 285.194C261.975 285.752 261.004 286.031 259.923 286.031C258.742 286.031 257.794 285.706 257.085 285.054C256.387 284.391 256.038 283.484 256.038 282.333C256.038 282.007 256.067 281.658 256.131 281.286C256.3 280.326 256.643 279.489 257.154 278.774C257.666 278.064 258.3 277.512 259.062 277.122C259.835 276.721 260.679 276.517 261.597 276.517ZM263.016 280.518C263.046 280.35 263.063 280.227 263.063 280.146C263.063 279.605 262.883 279.186 262.528 278.89C262.185 278.599 261.743 278.448 261.202 278.448C260.609 278.448 260.085 278.634 259.62 279.006C259.155 279.378 258.818 279.884 258.62 280.518H263.016Z" fill="white"/>
<path d="M269.39 283.054C269.373 283.118 269.367 283.205 269.367 283.31C269.367 283.531 269.425 283.693 269.553 283.798C269.693 283.891 269.908 283.938 270.204 283.938H271.298L270.949 285.892H269.46C267.797 285.892 266.971 285.205 266.971 283.821C266.971 283.542 266.994 283.28 267.041 283.03L267.832 278.587H266.715L267.064 276.68H268.181L268.576 274.4H270.926L270.507 276.68H272.554L272.228 278.587H270.158L269.39 283.054Z" fill="white"/>
<path d="M281.461 274.284L279.414 285.892H277.064L279.134 274.284H281.461Z" fill="white"/>
<path d="M288.432 276.54C289.392 276.54 290.142 276.808 290.689 277.331C291.247 277.843 291.526 278.576 291.526 279.518C291.526 279.878 291.491 280.204 291.433 280.495L290.479 285.892H288.153L289.06 280.797C289.089 280.6 289.107 280.402 289.107 280.216C289.107 279.657 288.956 279.239 288.665 278.96C288.368 278.669 287.949 278.518 287.409 278.518C286.786 278.518 286.257 278.704 285.827 279.076C285.391 279.448 285.094 279.983 284.943 280.681L284.036 285.892H281.686L283.315 276.68H285.664L285.455 277.82C285.838 277.418 286.292 277.11 286.804 276.889C287.327 276.657 287.874 276.54 288.432 276.54Z" fill="white"/>
<path d="M299.422 276.54C300.382 276.54 301.132 276.808 301.679 277.331C302.237 277.843 302.516 278.576 302.516 279.518C302.516 279.878 302.481 280.204 302.423 280.495L301.47 285.892H299.143L300.051 280.797C300.08 280.6 300.097 280.402 300.097 280.216C300.097 279.657 299.946 279.239 299.655 278.96C299.358 278.669 298.94 278.518 298.399 278.518C297.777 278.518 297.247 278.704 296.817 279.076C296.381 279.448 296.084 279.983 295.933 280.681L295.026 285.892H292.676L294.305 276.68H296.654L296.445 277.82C296.829 277.418 297.282 277.11 297.794 276.889C298.317 276.657 298.864 276.54 299.422 276.54Z" fill="white"/>
<path d="M307.784 286.031C307.005 286.031 306.319 285.88 305.714 285.566C305.109 285.24 304.632 284.787 304.295 284.194C303.969 283.606 303.806 282.932 303.806 282.17C303.806 281.135 304.05 280.187 304.551 279.332C305.045 278.465 305.72 277.785 306.574 277.285C307.423 276.773 308.377 276.517 309.436 276.517C310.227 276.517 310.924 276.692 311.529 277.029C312.146 277.355 312.628 277.814 312.971 278.401C313.309 278.977 313.483 279.652 313.483 280.425C313.483 281.484 313.233 282.437 312.739 283.286C312.239 284.141 311.553 284.816 310.669 285.31C309.796 285.793 308.837 286.031 307.784 286.031ZM308.11 284.054C308.668 284.054 309.168 283.891 309.622 283.566C310.07 283.24 310.418 282.815 310.669 282.286C310.93 281.763 311.064 281.204 311.064 280.611C311.064 279.948 310.878 279.436 310.506 279.076C310.134 278.704 309.668 278.518 309.11 278.518C308.534 278.518 308.028 278.68 307.598 279.006C307.162 279.332 306.819 279.768 306.574 280.309C306.342 280.838 306.225 281.402 306.225 282.007C306.225 282.658 306.394 283.164 306.737 283.519C307.092 283.88 307.551 284.054 308.11 284.054Z" fill="white"/>
<path d="M318.508 283.751L322.067 276.68H324.58L319.555 285.891H316.694L314.926 276.68H317.415L318.508 283.751Z" fill="white"/>
<path d="M324.466 281.263C324.635 280.32 324.967 279.489 325.467 278.774C325.961 278.064 326.56 277.512 327.258 277.122C327.967 276.721 328.723 276.517 329.514 276.517C330.195 276.517 330.77 276.657 331.236 276.936C331.713 277.215 332.062 277.564 332.283 277.983L332.515 276.68H334.865L333.236 285.892H330.887L331.143 284.543C330.77 284.979 330.288 285.333 329.7 285.613C329.125 285.892 328.497 286.031 327.816 286.031C327.13 286.031 326.525 285.886 326.002 285.589C325.49 285.281 325.083 284.845 324.792 284.287C324.513 283.728 324.373 283.077 324.373 282.333C324.373 281.995 324.402 281.635 324.466 281.263ZM331.701 281.286C331.747 280.995 331.771 280.786 331.771 280.658C331.771 280.006 331.573 279.495 331.189 279.122C330.817 278.75 330.34 278.564 329.77 278.564C329.334 278.564 328.91 278.675 328.491 278.89C328.084 279.111 327.735 279.419 327.444 279.82C327.147 280.227 326.944 280.704 326.839 281.263C326.804 281.466 326.793 281.658 326.793 281.844C326.793 282.513 326.979 283.042 327.351 283.426C327.735 283.798 328.217 283.984 328.793 283.984C329.224 283.984 329.642 283.885 330.049 283.682C330.468 283.467 330.823 283.158 331.119 282.751C331.41 282.333 331.608 281.844 331.701 281.286Z" fill="white"/>
<path d="M338.74 283.054C338.723 283.118 338.717 283.205 338.717 283.31C338.717 283.531 338.775 283.693 338.903 283.798C339.043 283.891 339.258 283.938 339.554 283.938H340.648L340.299 285.892H338.81C337.147 285.892 336.321 285.205 336.321 283.821C336.321 283.542 336.344 283.28 336.391 283.03L337.182 278.587H336.065L336.414 276.68H337.531L337.926 274.4H340.276L339.857 276.68H341.904L341.578 278.587H339.508L338.74 283.054Z" fill="white"/>
<path d="M344.982 275.586C344.61 275.586 344.307 275.488 344.075 275.284C343.854 275.069 343.749 274.796 343.749 274.47C343.749 274.022 343.918 273.644 344.261 273.33C344.598 273.004 344.994 272.842 345.447 272.842C345.802 272.842 346.087 272.952 346.308 273.167C346.541 273.388 346.657 273.65 346.657 273.958C346.657 274.412 346.482 274.796 346.145 275.121C345.819 275.435 345.43 275.586 344.982 275.586ZM345.936 276.68L344.307 285.892H341.958L343.586 276.68H345.936Z" fill="white"/>
<path d="M350.697 286.031C349.918 286.031 349.232 285.88 348.627 285.566C348.022 285.24 347.545 284.787 347.208 284.194C346.882 283.606 346.72 282.932 346.72 282.17C346.72 281.135 346.964 280.187 347.464 279.332C347.958 278.465 348.633 277.785 349.488 277.285C350.337 276.773 351.291 276.517 352.349 276.517C353.14 276.517 353.838 276.692 354.443 277.029C355.059 277.355 355.542 277.814 355.885 278.401C356.222 278.977 356.397 279.652 356.397 280.425C356.397 281.484 356.147 282.437 355.652 283.286C355.152 284.141 354.466 284.816 353.582 285.31C352.71 285.793 351.75 286.031 350.697 286.031ZM351.023 284.054C351.581 284.054 352.082 283.891 352.535 283.566C352.983 283.24 353.332 282.815 353.582 282.286C353.844 281.763 353.977 281.204 353.977 280.611C353.977 279.948 353.791 279.436 353.419 279.076C353.047 278.704 352.582 278.518 352.023 278.518C351.448 278.518 350.942 278.68 350.511 279.006C350.075 279.332 349.732 279.768 349.488 280.309C349.255 280.838 349.139 281.402 349.139 282.007C349.139 282.658 349.308 283.164 349.651 283.519C350.005 283.88 350.465 284.054 351.023 284.054Z" fill="white"/>
<path d="M363.934 276.54C364.893 276.54 365.644 276.808 366.19 277.331C366.749 277.843 367.028 278.576 367.028 279.518C367.028 279.878 366.993 280.204 366.935 280.495L365.981 285.892H363.655L364.562 280.797C364.591 280.6 364.609 280.402 364.609 280.216C364.609 279.657 364.457 279.239 364.167 278.96C363.87 278.669 363.451 278.518 362.91 278.518C362.288 278.518 361.759 278.704 361.329 279.076C360.892 279.448 360.596 279.983 360.445 280.681L359.537 285.892H357.188L358.816 276.68H361.166L360.956 277.82C361.34 277.418 361.794 277.11 362.306 276.889C362.829 276.657 363.376 276.54 363.934 276.54Z" fill="white"/>
</svg>
