<svg width="210" height="59" viewBox="0 0 210 59" fill="none" xmlns="http://www.w3.org/2000/svg">
<path d="M143.997 36.5362C144.052 36.2602 144.081 35.8852 144.081 35.4112C144.081 35.1352 144.06 34.8643 144.018 34.5987C143.982 34.3279 143.919 34.0883 143.831 33.8799C143.739 33.6664 143.601 33.4997 143.414 33.3799C143.232 33.2628 142.997 33.2029 142.706 33.2029C142.372 33.2029 142.065 33.2758 141.789 33.4216C141.518 33.5674 141.273 33.7602 141.06 33.9945C140.851 34.2237 140.687 34.4919 140.57 34.7966C140.45 35.0961 140.393 35.4086 140.393 35.7341C140.393 36.2133 140.513 36.5831 140.758 36.8383C141.008 37.0961 141.333 37.307 141.737 37.4737C142.138 37.6404 142.596 37.781 143.112 37.8904C143.633 38.0023 144.167 38.1299 144.716 38.2758C145.174 38.4008 145.633 38.5648 146.091 38.7654C146.549 38.9685 146.956 39.2393 147.31 39.5779C147.669 39.919 147.961 40.3591 148.185 40.9008C148.406 41.4424 148.518 42.1195 148.518 42.932C148.518 44.0857 148.289 45.057 147.831 45.8487C147.372 46.6404 146.737 47.2862 145.924 47.7862C145.117 48.281 144.159 48.6378 143.049 48.8591C141.937 49.0727 140.729 49.182 139.424 49.182C138.104 49.182 137.023 49.0935 136.185 48.9216C135.351 48.7497 134.695 48.5622 134.216 48.3591C133.646 48.1169 133.221 47.8383 132.945 47.5258L133.883 43.7549H138.737C138.716 43.9216 138.695 44.1482 138.674 44.432C138.659 44.7185 138.653 44.9424 138.653 45.1091C138.653 45.3253 138.68 45.5544 138.737 45.7966C138.792 46.0336 138.877 46.2523 138.997 46.4529C139.114 46.656 139.284 46.8227 139.508 46.9529C139.729 47.0779 140.002 47.1404 140.331 47.1404C140.698 47.1404 141.023 47.0622 141.31 46.9008C141.594 46.7341 141.833 46.5258 142.028 46.2758C142.221 46.0258 142.367 45.7523 142.466 45.4529C142.57 45.1482 142.622 44.8487 142.622 44.557C142.622 44.156 142.523 43.8148 142.331 43.5362C142.135 43.2602 141.872 43.0258 141.539 42.8383C141.211 42.6456 140.833 42.4789 140.403 42.3383C139.971 42.2003 139.528 42.057 139.07 41.9112C138.625 41.781 138.159 41.6247 137.674 41.4424C137.187 41.2549 136.742 40.9997 136.341 40.6716C135.937 40.3383 135.601 39.9216 135.331 39.4216C135.065 38.9164 134.935 38.2654 134.935 37.4737C134.935 36.3018 135.232 35.3148 135.831 34.5154C136.427 33.7185 137.18 33.0727 138.091 32.5779C139 32.0779 139.997 31.7237 141.081 31.5154C142.164 31.3018 143.19 31.1924 144.164 31.1924C145.448 31.1924 146.552 31.3461 147.476 31.6508C148.406 31.9503 149.112 32.3018 149.591 32.7029L148.57 36.5362H143.997Z" fill="white"/>
<path d="M160.033 42.3487L158.627 48.9633H152.648L154.169 41.8799L151.46 31.4633H158.075L159.95 38.3799L164.085 31.4633H167.054L160.033 42.3487Z" fill="white"/>
<path d="M179.705 48.9633H173.257L170.195 36.3174L167.497 48.9633H165.018L168.737 31.4633H175.32L178.216 44.2758L180.945 31.4633H183.476L179.705 48.9633Z" fill="white"/>
<path d="M198.301 47.4737C197.843 47.6977 197.367 47.9164 196.874 48.1299C196.387 48.3383 195.869 48.5232 195.322 48.682C194.773 48.8357 194.171 48.9581 193.52 49.0466C192.867 49.1352 192.156 49.182 191.385 49.182C188.919 49.182 187.02 48.6352 185.687 47.5362C184.359 46.432 183.697 44.5935 183.697 42.0154C183.697 40.531 183.926 39.1299 184.385 37.8174C184.843 36.5049 185.52 35.3591 186.416 34.3799C187.317 33.3956 188.429 32.6169 189.749 32.0466C191.075 31.4789 192.593 31.1924 194.301 31.1924C195.114 31.1924 195.854 31.2497 196.52 31.3591C197.192 31.4711 197.801 31.6143 198.343 31.7862C198.885 31.9607 199.369 32.1482 199.801 32.3487C200.231 32.5518 200.619 32.7445 200.968 32.932L199.979 38.057H195.02C195.041 37.8695 195.064 37.6299 195.093 37.3383C195.119 37.0414 195.14 36.7419 195.156 36.4424C195.176 36.1378 195.192 35.8383 195.208 35.5466C195.229 35.2549 195.239 35.0049 195.239 34.7966C195.239 34.6508 195.229 34.4841 195.208 34.2966C195.192 34.1039 195.148 33.9164 195.072 33.7341C195.002 33.5466 194.887 33.3956 194.729 33.2758C194.575 33.1508 194.369 33.0883 194.114 33.0883C193.635 33.0883 193.197 33.2862 192.801 33.682C192.406 34.0779 192.051 34.6039 191.739 35.2549C191.426 35.9086 191.15 36.6482 190.916 37.4737C190.679 38.3018 190.481 39.1404 190.322 39.9945C190.169 40.8487 190.051 41.6898 189.968 42.5154C189.885 43.3435 189.843 44.0674 189.843 44.6924C189.843 44.8747 189.848 45.1039 189.864 45.3799C189.885 45.6586 189.939 45.9268 190.031 46.182C190.127 46.4398 190.27 46.6612 190.458 46.8487C190.65 47.031 190.916 47.1195 191.249 47.1195C191.817 47.1195 192.367 46.7654 192.895 46.057C193.429 45.3487 193.898 44.0857 194.301 42.2654H199.406L198.301 47.4737Z" fill="white"/>
<path d="M142.905 11.6402H138.467L135.186 27.0465H129.238L132.519 11.6402H128.134L128.634 9.54648H143.373L142.905 11.6402Z" fill="#FF0A0A"/>
<path d="M158.58 13.7131C158.58 14.7965 158.273 15.7965 157.663 16.7131C157.059 17.6298 156.059 18.3277 154.663 18.8069L157.861 27.0465H151.715L149.288 19.4111H148.986L147.361 27.0465H141.413L145.132 9.54648H152.382C153.221 9.54648 154.017 9.59856 154.767 9.70273C155.523 9.80689 156.184 10.0126 156.747 10.3173C157.309 10.6168 157.752 11.0361 158.08 11.5777C158.413 12.1194 158.58 12.8329 158.58 13.7131ZM150.642 17.6506C151.122 17.6506 151.53 17.4918 151.872 17.1715C152.21 16.846 152.486 16.4527 152.695 15.9944C152.908 15.5361 153.062 15.0465 153.153 14.5256C153.241 13.9996 153.288 13.5439 153.288 13.1611C153.288 12.6819 153.205 12.273 153.038 11.9319C152.872 11.5934 152.512 11.4215 151.965 11.4215H150.726L149.351 17.6506H150.642Z" fill="#FF0A0A"/>
<path d="M174.113 27.0465H167.665L167.279 22.6611H162.185L160.227 27.0465H157.56L165.685 9.54648H172.217L174.113 27.0465ZM163.092 20.6506H167.092L166.456 13.1611L163.092 20.6506Z" fill="#FF0A0A"/>
<path d="M190.124 27.0465H183.677L180.614 14.4006L177.916 27.0465H175.437L179.156 9.54648H185.739L188.635 22.359L191.364 9.54648H193.895L190.124 27.0465Z" fill="#FF0A0A"/>
<path d="M193.096 24.5361L202.158 11.6402H195.221L195.627 9.54648H209.241L208.991 11.8902L200.012 24.9527H207.262L206.877 27.0465H192.596L193.096 24.5361Z" fill="#FF0A0A"/>
<mask id="mask0_68_1487" style="mask-type:luminance" maskUnits="userSpaceOnUse" x="6" y="46" width="10" height="6">
<path d="M6.16144 46.8438H15.8594V51.6927H6.16144V46.8438Z" fill="white"/>
</mask>
<g mask="url(#mask0_68_1487)">
<mask id="mask1_68_1487" style="mask-type:luminance" maskUnits="userSpaceOnUse" x="6" y="46" width="10" height="6">
<path d="M13.4349 46.8438C14.7734 46.8438 15.8594 47.9297 15.8594 49.2682C15.8594 50.6068 14.7734 51.6927 13.4349 51.6927H8.58592C7.24738 51.6927 6.16144 50.6068 6.16144 49.2682C6.16144 47.9297 7.24738 46.8438 8.58592 46.8438H13.4349Z" fill="white"/>
</mask>
<g mask="url(#mask1_68_1487)">
<path d="M6.16144 46.8438H15.8594V51.6927H6.16144V46.8438Z" fill="white"/>
</g>
</g>
<mask id="mask2_68_1487" style="mask-type:luminance" maskUnits="userSpaceOnUse" x="0" y="34" width="11" height="6">
<path d="M0.570312 34.2344H10.2682V39.0833H0.570312V34.2344Z" fill="white"/>
</mask>
<g mask="url(#mask2_68_1487)">
<mask id="mask3_68_1487" style="mask-type:luminance" maskUnits="userSpaceOnUse" x="0" y="34" width="11" height="6">
<path d="M7.84375 34.2344C9.1849 34.2344 10.2682 35.3203 10.2682 36.6589C10.2682 37.9974 9.1849 39.0833 7.84375 39.0833H2.99479C1.65625 39.0833 0.570312 37.9974 0.570312 36.6589C0.570312 35.3203 1.65625 34.2344 2.99479 34.2344H7.84375Z" fill="white"/>
</mask>
<g mask="url(#mask3_68_1487)">
<path d="M0.570312 34.2344H10.2682V39.0833H0.570312V34.2344Z" fill="#FF0A0A"/>
</g>
</g>
<mask id="mask4_68_1487" style="mask-type:luminance" maskUnits="userSpaceOnUse" x="36" y="0" width="10" height="6">
<path d="M36.3854 0.958344H45.6511V5.58855H36.3854V0.958344Z" fill="white"/>
</mask>
<g mask="url(#mask4_68_1487)">
<mask id="mask5_68_1487" style="mask-type:luminance" maskUnits="userSpaceOnUse" x="36" y="0" width="10" height="6">
<path d="M43.3334 0.958344C44.612 0.958344 45.6511 1.9948 45.6511 3.27345C45.6511 4.55209 44.612 5.58855 43.3334 5.58855H38.7005C37.4219 5.58855 36.3854 4.55209 36.3854 3.27345C36.3854 1.9948 37.4219 0.958344 38.7005 0.958344H43.3334Z" fill="white"/>
</mask>
<g mask="url(#mask5_68_1487)">
<path d="M36.3854 0.958344H45.6511V5.58855H36.3854V0.958344Z" fill="white"/>
</g>
</g>
<mask id="mask6_68_1487" style="mask-type:luminance" maskUnits="userSpaceOnUse" x="31" y="0" width="11" height="6">
<path d="M31.7526 0.958344H41.0182V5.58855H31.7526V0.958344Z" fill="white"/>
</mask>
<g mask="url(#mask6_68_1487)">
<mask id="mask7_68_1487" style="mask-type:luminance" maskUnits="userSpaceOnUse" x="31" y="0" width="11" height="6">
<path d="M38.7005 0.958344C39.9818 0.958344 41.0182 1.9948 41.0182 3.27345C41.0182 4.55209 39.9818 5.58855 38.7005 5.58855H34.0703C32.7891 5.58855 31.7526 4.55209 31.7526 3.27345C31.7526 1.9948 32.7891 0.958344 34.0703 0.958344H38.7005Z" fill="white"/>
</mask>
<g mask="url(#mask7_68_1487)">
<path d="M31.7526 0.958344H41.0182V5.58855H31.7526V0.958344Z" fill="white"/>
</g>
</g>
<mask id="mask8_68_1487" style="mask-type:luminance" maskUnits="userSpaceOnUse" x="16" y="0" width="10" height="6">
<path d="M16.6224 0.958344H25.8854V5.58855H16.6224V0.958344Z" fill="white"/>
</mask>
<g mask="url(#mask8_68_1487)">
<mask id="mask9_68_1487" style="mask-type:luminance" maskUnits="userSpaceOnUse" x="16" y="0" width="10" height="6">
<path d="M23.5703 0.958344C24.8489 0.958344 25.8854 1.9948 25.8854 3.27345C25.8854 4.55209 24.8489 5.58855 23.5703 5.58855H18.9375C17.6588 5.58855 16.6224 4.55209 16.6224 3.27345C16.6224 1.9948 17.6588 0.958344 18.9375 0.958344H23.5703Z" fill="white"/>
</mask>
<g mask="url(#mask9_68_1487)">
<path d="M16.6224 0.958344H25.8854V5.58855H16.6224V0.958344Z" fill="#FF0A0A"/>
</g>
</g>
<mask id="mask10_68_1487" style="mask-type:luminance" maskUnits="userSpaceOnUse" x="17" y="8" width="76" height="45">
<path d="M17.6667 8.95312H92.3099V52.3333H17.6667V8.95312Z" fill="white"/>
</mask>
<g mask="url(#mask10_68_1487)">
<path d="M117.227 11.724L109.211 49.4167C108.888 50.9427 107.383 52.1849 105.857 52.1849H68.974C68.4766 52.1849 68.1328 51.8047 68.1979 51.3125C68.7057 47.4401 66.0521 44.4036 62.1563 44.4036C58.2682 44.4036 54.3281 47.4297 53.1797 51.2969C53.0365 51.7943 52.5234 52.1849 52.0182 52.1849H47.4557C45.9245 52.1849 44.9453 50.9427 45.2682 49.4167L45.8958 46.4714H20.6563C19.2839 46.4714 18.1719 45.3568 18.1719 43.987C18.1719 42.6146 19.2839 41.5026 20.6563 41.5026H53.3646C54.737 41.5026 55.849 40.388 55.849 39.0182C55.849 37.6458 54.737 36.5313 53.3646 36.5313H35.1016C33.7292 36.5313 32.6172 35.4193 32.6172 34.0469C32.6172 32.6771 33.7292 31.5625 35.1016 31.5625H55.4766C56.849 31.5625 57.9609 30.4505 57.9609 29.0781C57.9609 27.7057 56.849 26.5938 55.4766 26.5938H26.638C25.2682 26.5938 24.1536 25.4792 24.1536 24.1094C24.1536 22.737 25.2682 21.625 26.638 21.625H57.5885C58.9609 21.625 60.0729 20.5104 60.0729 19.1406C60.0729 17.7682 58.9609 16.6536 57.5885 16.6536H35.1016C33.7292 16.6536 32.6172 15.5417 32.6172 14.1693C32.6172 12.7995 33.7292 11.6849 35.1016 11.6849H53.2943C53.6328 10.1745 55.1328 8.95312 56.6432 8.95312H115.039C116.57 8.95312 117.549 10.1953 117.227 11.724Z" fill="#FF0A0A"/>
</g>
<mask id="mask11_68_1487" style="mask-type:luminance" maskUnits="userSpaceOnUse" x="53" y="45" width="15" height="14">
<path d="M53.5729 45.8099H67.1146V58.6823H53.5729V45.8099Z" fill="white"/>
</mask>
<g mask="url(#mask11_68_1487)">
<path d="M59.6508 55.7446C57.8253 55.7446 56.656 54.2603 57.044 52.4347C57.4321 50.6092 59.2315 49.1248 61.0571 49.1248C62.8826 49.1248 64.0519 50.6092 63.6638 52.4347C63.2758 54.2603 61.4737 55.7446 59.6508 55.7446ZM61.7576 45.828C58.1144 45.828 54.5206 48.7915 53.7472 52.4347C52.9711 56.078 55.3071 59.0415 58.9503 59.0415C62.5909 59.0415 66.1873 56.078 66.9607 52.4347C67.7342 48.7915 65.4008 45.828 61.7576 45.828Z" fill="#FF0A0A"/>
</g>
<path d="M28.8802 14.1693C28.8802 15.5417 27.7682 16.6537 26.3959 16.6537H21.8099C20.4375 16.6537 19.3229 15.5417 19.3229 14.1693C19.3229 12.7969 20.4375 11.6849 21.8099 11.6849H26.3959C27.7682 11.6849 28.8802 12.7969 28.8802 14.1693Z" fill="#FF0A0A"/>
<mask id="mask12_68_1487" style="mask-type:luminance" maskUnits="userSpaceOnUse" x="15" y="31" width="11" height="6">
<path d="M15.8594 31H25.6667V37H15.8594V31Z" fill="white"/>
</mask>
<g mask="url(#mask12_68_1487)">
<path d="M25.4375 34.0469C25.4375 35.4193 24.3229 36.5313 22.9505 36.5313H18.3594C16.9896 36.5313 15.875 35.4193 15.875 34.0469C15.875 32.6771 16.9896 31.5625 18.3594 31.5625H22.9505C24.3229 31.5625 25.4375 32.6771 25.4375 34.0469Z" fill="#FF0A0A"/>
</g>
<mask id="mask13_68_1487" style="mask-type:luminance" maskUnits="userSpaceOnUse" x="91" y="8" width="16" height="45">
<path d="M91.6484 8.95312H106.333V52.3333H91.6484V8.95312Z" fill="white"/>
</mask>
<g mask="url(#mask13_68_1487)">
<path d="M106.102 11.724L98.0859 49.4167C97.763 50.9427 96.2578 52.1849 94.7318 52.1849H57.849C57.3516 52.1849 57.0078 51.8047 57.0729 51.3125C57.5807 47.4401 54.9271 44.4036 51.0313 44.4036C47.1458 44.4036 43.2031 47.4297 42.0547 51.2969C41.9115 51.7943 41.3984 52.1849 40.8932 52.1849H36.3307C34.7995 52.1849 33.8203 50.9427 34.1432 49.4167L34.7708 46.4714H9.53125C8.15885 46.4714 7.04688 45.3568 7.04688 43.987C7.04688 42.6146 8.15885 41.5026 9.53125 41.5026H42.2396C43.612 41.5026 44.724 40.388 44.724 39.0182C44.724 37.6458 43.612 36.5313 42.2396 36.5313H23.9766C22.6042 36.5313 21.4922 35.4193 21.4922 34.0469C21.4922 32.6771 22.6042 31.5625 23.9766 31.5625H44.3516C45.724 31.5625 46.8359 30.4505 46.8359 29.0781C46.8359 27.7057 45.724 26.5938 44.3516 26.5938H15.513C14.1432 26.5938 13.0286 25.4792 13.0286 24.1094C13.0286 22.737 14.1432 21.625 15.513 21.625H46.4635C47.8359 21.625 48.9479 20.5104 48.9479 19.1406C48.9479 17.7682 47.8359 16.6536 46.4635 16.6536H23.9766C22.6042 16.6536 21.4922 15.5417 21.4922 14.1693C21.4922 12.7995 22.6042 11.6849 23.9766 11.6849H42.1693C42.5078 10.1745 44.0078 8.95312 45.5208 8.95312H103.914C105.445 8.95312 106.424 10.1953 106.102 11.724Z" fill="#FF0A0A"/>
</g>
<mask id="mask14_68_1487" style="mask-type:luminance" maskUnits="userSpaceOnUse" x="99" y="18" width="32" height="34">
<path d="M99.112 18.0573H130.172V51.3776H99.112V18.0573Z" fill="white"/>
</mask>
<g mask="url(#mask14_68_1487)">
<path d="M129.083 32.6796L127.883 31.5312C127.672 31.3307 127.484 31.0963 127.323 30.8281L120.276 19.2551C119.815 18.4999 118.987 18.065 118.005 18.065H107.068C106.43 18.065 105.799 18.5859 105.664 19.2239L99.1639 49.8046C98.9816 50.664 99.5311 51.3619 100.388 51.3619H105.974L106.044 51.138C107.265 47.2994 111.104 44.4036 114.971 44.4036C118.838 44.4036 121.445 47.2994 121.036 51.138L121.01 51.3619H123.729C125.531 51.3619 127.305 49.8958 127.687 48.0963L130.138 36.5728C130.461 35.0468 130.078 33.6301 129.083 32.6796Z" fill="#FF0A0A"/>
</g>
<mask id="mask15_68_1487" style="mask-type:luminance" maskUnits="userSpaceOnUse" x="106" y="45" width="14" height="14">
<path d="M106.391 45.8099H119.932V58.6823H106.391V45.8099Z" fill="white"/>
</mask>
<g mask="url(#mask15_68_1487)">
<path d="M112.466 55.7446C110.64 55.7446 109.471 54.2603 109.859 52.4347C110.247 50.6092 112.047 49.1248 113.872 49.1248C115.698 49.1248 116.867 50.6092 116.479 52.4347C116.091 54.2603 114.291 55.7446 112.466 55.7446ZM114.573 45.828C110.929 45.828 107.336 48.7915 106.562 52.4347C105.789 56.078 108.122 59.0415 111.765 59.0415C115.406 59.0415 119.002 56.078 119.776 52.4347C120.549 48.7915 118.216 45.828 114.573 45.828Z" fill="#FF0A0A"/>
</g>
<path d="M116.549 21.0469H110.177C109.117 21.0469 108.076 21.9036 107.849 22.9635L106.096 31.2188C105.87 32.2786 106.547 33.138 107.607 33.138H119.404C120.932 33.138 122.208 31.4427 121.641 30.1667L117.969 21.9115C117.729 21.3698 117.198 21.0469 116.549 21.0469Z" fill="#231F20"/>
<mask id="mask16_68_1487" style="mask-type:luminance" maskUnits="userSpaceOnUse" x="64" y="16" width="35" height="29">
<path d="M64.3333 16.8906H98.3333V44.3516H64.3333V16.8906Z" fill="white"/>
</mask>
<g mask="url(#mask16_68_1487)">
<path d="M85.2448 17.4115L81.2656 21.3464L77.3932 17.4115C76.9687 16.987 76.3281 16.8698 75.7812 17.1172L65.5547 21.763C64.6641 22.1667 64.4297 23.3255 65.0911 24.0443L68.3255 27.599V36.75C68.3255 37.8333 68.9323 38.8255 69.8984 39.3151L79.8281 44.3516V31.2891L71.2005 27.263L80.6771 22.9245C81.0443 22.7396 81.4844 22.7396 81.8516 22.9245L91.3307 27.2604L82.7031 31.2891V44.3516L92.6302 39.3125C93.5964 38.8229 94.2057 37.8307 94.2057 36.75V27.599L97.5443 24.0443C98.2083 23.3255 97.974 22.1667 97.0807 21.763L86.8542 17.1172C86.3099 16.8698 85.6693 16.987 85.2448 17.4115Z" fill="#231F20"/>
</g>
<mask id="mask17_68_1487" style="mask-type:luminance" maskUnits="userSpaceOnUse" x="18" y="11" width="13" height="6">
<path d="M18.3542 11.4609H30.099V16.9792H18.3542V11.4609Z" fill="white"/>
</mask>
<g mask="url(#mask17_68_1487)">
<mask id="mask18_68_1487" style="mask-type:luminance" maskUnits="userSpaceOnUse" x="18" y="11" width="13" height="6">
<path d="M27.4792 11.4609C28.9193 11.4609 30.0886 12.6953 30.0886 14.2188C30.0886 15.7422 28.9193 16.9792 27.4792 16.9792H20.961C19.5209 16.9792 18.3542 15.7422 18.3542 14.2188C18.3542 12.6953 19.5209 11.4609 20.961 11.4609H27.4792Z" fill="white"/>
</mask>
<g mask="url(#mask18_68_1487)">
<path d="M18.3542 11.4609H30.0781V16.9792H18.3542V11.4609Z" fill="white"/>
</g>
</g>
</svg>
